<mxfile host="app.diagrams.net" modified="2022-09-24T07:36:32.185Z" agent="5.0 (Windows NT 10.0; Win64; x64) AppleWebKit/537.36 (KHTML, like Gecko) Chrome/100.0.4896.60 Safari/537.36" etag="qHOZ54fgKrImxbIhNtgm" version="20.3.6" type="github">
  <diagram id="71Rz95wQpn5zVg0QbRse" name="第 1 页">
    <mxGraphModel dx="1422" dy="744" grid="1" gridSize="10" guides="1" tooltips="1" connect="1" arrows="1" fold="1" page="1" pageScale="1" pageWidth="827" pageHeight="1169" math="0" shadow="0">
      <root>
        <mxCell id="0" />
        <mxCell id="1" parent="0" />
        <mxCell id="HrFU1trKESRWzAMs8E7i-1" value="" style="group" vertex="1" connectable="0" parent="1">
          <mxGeometry x="146" y="20" width="480" height="40" as="geometry" />
        </mxCell>
        <mxCell id="HrFU1trKESRWzAMs8E7i-2" value="imm[11:0]" style="rounded=0;whiteSpace=wrap;html=1;fillColor=#f8cecc;strokeColor=#b85450;" vertex="1" parent="HrFU1trKESRWzAMs8E7i-1">
          <mxGeometry width="200" height="40" as="geometry" />
        </mxCell>
        <mxCell id="HrFU1trKESRWzAMs8E7i-3" value="rs1" style="rounded=0;whiteSpace=wrap;html=1;" vertex="1" parent="HrFU1trKESRWzAMs8E7i-1">
          <mxGeometry x="200" width="80" height="40" as="geometry" />
        </mxCell>
        <mxCell id="HrFU1trKESRWzAMs8E7i-4" value="000" style="rounded=0;whiteSpace=wrap;html=1;" vertex="1" parent="HrFU1trKESRWzAMs8E7i-1">
          <mxGeometry x="280" width="40" height="40" as="geometry" />
        </mxCell>
        <mxCell id="HrFU1trKESRWzAMs8E7i-5" value="rd" style="rounded=0;whiteSpace=wrap;html=1;" vertex="1" parent="HrFU1trKESRWzAMs8E7i-1">
          <mxGeometry x="320" width="100" height="40" as="geometry" />
        </mxCell>
        <mxCell id="HrFU1trKESRWzAMs8E7i-6" value="0000011" style="rounded=0;whiteSpace=wrap;html=1;fillColor=#dae8fc;strokeColor=#6c8ebf;" vertex="1" parent="HrFU1trKESRWzAMs8E7i-1">
          <mxGeometry x="420" width="60" height="40" as="geometry" />
        </mxCell>
        <mxCell id="HrFU1trKESRWzAMs8E7i-7" value="lb 指令" style="text;html=1;align=center;verticalAlign=middle;resizable=0;points=[];autosize=1;strokeColor=none;fillColor=none;" vertex="1" parent="1">
          <mxGeometry x="75" y="20" width="60" height="30" as="geometry" />
        </mxCell>
        <mxCell id="HrFU1trKESRWzAMs8E7i-8" value="" style="group" vertex="1" connectable="0" parent="1">
          <mxGeometry x="146" y="59" width="480" height="40" as="geometry" />
        </mxCell>
        <mxCell id="HrFU1trKESRWzAMs8E7i-9" value="imm[11:0]" style="rounded=0;whiteSpace=wrap;html=1;fillColor=#f8cecc;strokeColor=#b85450;" vertex="1" parent="HrFU1trKESRWzAMs8E7i-8">
          <mxGeometry width="200" height="40" as="geometry" />
        </mxCell>
        <mxCell id="HrFU1trKESRWzAMs8E7i-10" value="rs1" style="rounded=0;whiteSpace=wrap;html=1;" vertex="1" parent="HrFU1trKESRWzAMs8E7i-8">
          <mxGeometry x="200" width="80" height="40" as="geometry" />
        </mxCell>
        <mxCell id="HrFU1trKESRWzAMs8E7i-11" value="100" style="rounded=0;whiteSpace=wrap;html=1;" vertex="1" parent="HrFU1trKESRWzAMs8E7i-8">
          <mxGeometry x="280" width="40" height="40" as="geometry" />
        </mxCell>
        <mxCell id="HrFU1trKESRWzAMs8E7i-12" value="rd" style="rounded=0;whiteSpace=wrap;html=1;" vertex="1" parent="HrFU1trKESRWzAMs8E7i-8">
          <mxGeometry x="320" width="100" height="40" as="geometry" />
        </mxCell>
        <mxCell id="HrFU1trKESRWzAMs8E7i-13" value="0000011" style="rounded=0;whiteSpace=wrap;html=1;fillColor=#dae8fc;strokeColor=#6c8ebf;" vertex="1" parent="HrFU1trKESRWzAMs8E7i-8">
          <mxGeometry x="420" width="60" height="40" as="geometry" />
        </mxCell>
        <mxCell id="HrFU1trKESRWzAMs8E7i-14" value="lbu 指令" style="text;html=1;align=center;verticalAlign=middle;resizable=0;points=[];autosize=1;strokeColor=none;fillColor=none;" vertex="1" parent="1">
          <mxGeometry x="70" y="59" width="70" height="30" as="geometry" />
        </mxCell>
        <mxCell id="HrFU1trKESRWzAMs8E7i-15" value="" style="group" vertex="1" connectable="0" parent="1">
          <mxGeometry x="146" y="99" width="480" height="40" as="geometry" />
        </mxCell>
        <mxCell id="HrFU1trKESRWzAMs8E7i-16" value="imm[11:0]" style="rounded=0;whiteSpace=wrap;html=1;fillColor=#f8cecc;strokeColor=#b85450;" vertex="1" parent="HrFU1trKESRWzAMs8E7i-15">
          <mxGeometry width="200" height="40" as="geometry" />
        </mxCell>
        <mxCell id="HrFU1trKESRWzAMs8E7i-17" value="rs1" style="rounded=0;whiteSpace=wrap;html=1;" vertex="1" parent="HrFU1trKESRWzAMs8E7i-15">
          <mxGeometry x="200" width="80" height="40" as="geometry" />
        </mxCell>
        <mxCell id="HrFU1trKESRWzAMs8E7i-18" value="001" style="rounded=0;whiteSpace=wrap;html=1;" vertex="1" parent="HrFU1trKESRWzAMs8E7i-15">
          <mxGeometry x="280" width="40" height="40" as="geometry" />
        </mxCell>
        <mxCell id="HrFU1trKESRWzAMs8E7i-19" value="rd" style="rounded=0;whiteSpace=wrap;html=1;" vertex="1" parent="HrFU1trKESRWzAMs8E7i-15">
          <mxGeometry x="320" width="100" height="40" as="geometry" />
        </mxCell>
        <mxCell id="HrFU1trKESRWzAMs8E7i-20" value="0000011" style="rounded=0;whiteSpace=wrap;html=1;fillColor=#dae8fc;strokeColor=#6c8ebf;" vertex="1" parent="HrFU1trKESRWzAMs8E7i-15">
          <mxGeometry x="420" width="60" height="40" as="geometry" />
        </mxCell>
        <mxCell id="HrFU1trKESRWzAMs8E7i-21" value="lh 指令" style="text;html=1;align=center;verticalAlign=middle;resizable=0;points=[];autosize=1;strokeColor=none;fillColor=none;" vertex="1" parent="1">
          <mxGeometry x="75" y="99" width="60" height="30" as="geometry" />
        </mxCell>
        <mxCell id="HrFU1trKESRWzAMs8E7i-22" value="" style="group" vertex="1" connectable="0" parent="1">
          <mxGeometry x="146" y="139" width="480" height="40" as="geometry" />
        </mxCell>
        <mxCell id="HrFU1trKESRWzAMs8E7i-23" value="imm[11:0]" style="rounded=0;whiteSpace=wrap;html=1;fillColor=#f8cecc;strokeColor=#b85450;" vertex="1" parent="HrFU1trKESRWzAMs8E7i-22">
          <mxGeometry width="200" height="40" as="geometry" />
        </mxCell>
        <mxCell id="HrFU1trKESRWzAMs8E7i-24" value="rs1" style="rounded=0;whiteSpace=wrap;html=1;" vertex="1" parent="HrFU1trKESRWzAMs8E7i-22">
          <mxGeometry x="200" width="80" height="40" as="geometry" />
        </mxCell>
        <mxCell id="HrFU1trKESRWzAMs8E7i-25" value="101" style="rounded=0;whiteSpace=wrap;html=1;" vertex="1" parent="HrFU1trKESRWzAMs8E7i-22">
          <mxGeometry x="280" width="40" height="40" as="geometry" />
        </mxCell>
        <mxCell id="HrFU1trKESRWzAMs8E7i-26" value="rd" style="rounded=0;whiteSpace=wrap;html=1;" vertex="1" parent="HrFU1trKESRWzAMs8E7i-22">
          <mxGeometry x="320" width="100" height="40" as="geometry" />
        </mxCell>
        <mxCell id="HrFU1trKESRWzAMs8E7i-27" value="0000011" style="rounded=0;whiteSpace=wrap;html=1;fillColor=#dae8fc;strokeColor=#6c8ebf;" vertex="1" parent="HrFU1trKESRWzAMs8E7i-22">
          <mxGeometry x="420" width="60" height="40" as="geometry" />
        </mxCell>
        <mxCell id="HrFU1trKESRWzAMs8E7i-28" value="lhu指令" style="text;html=1;align=center;verticalAlign=middle;resizable=0;points=[];autosize=1;strokeColor=none;fillColor=none;" vertex="1" parent="1">
          <mxGeometry x="75" y="139" width="60" height="30" as="geometry" />
        </mxCell>
        <mxCell id="HrFU1trKESRWzAMs8E7i-29" value="" style="group" vertex="1" connectable="0" parent="1">
          <mxGeometry x="146" y="179" width="480" height="40" as="geometry" />
        </mxCell>
        <mxCell id="HrFU1trKESRWzAMs8E7i-30" value="imm[11:0]" style="rounded=0;whiteSpace=wrap;html=1;fillColor=#f8cecc;strokeColor=#b85450;" vertex="1" parent="HrFU1trKESRWzAMs8E7i-29">
          <mxGeometry width="200" height="40" as="geometry" />
        </mxCell>
        <mxCell id="HrFU1trKESRWzAMs8E7i-31" value="rs1" style="rounded=0;whiteSpace=wrap;html=1;" vertex="1" parent="HrFU1trKESRWzAMs8E7i-29">
          <mxGeometry x="200" width="80" height="40" as="geometry" />
        </mxCell>
        <mxCell id="HrFU1trKESRWzAMs8E7i-32" value="010" style="rounded=0;whiteSpace=wrap;html=1;" vertex="1" parent="HrFU1trKESRWzAMs8E7i-29">
          <mxGeometry x="280" width="40" height="40" as="geometry" />
        </mxCell>
        <mxCell id="HrFU1trKESRWzAMs8E7i-33" value="rd" style="rounded=0;whiteSpace=wrap;html=1;" vertex="1" parent="HrFU1trKESRWzAMs8E7i-29">
          <mxGeometry x="320" width="100" height="40" as="geometry" />
        </mxCell>
        <mxCell id="HrFU1trKESRWzAMs8E7i-34" value="0000011" style="rounded=0;whiteSpace=wrap;html=1;fillColor=#dae8fc;strokeColor=#6c8ebf;" vertex="1" parent="HrFU1trKESRWzAMs8E7i-29">
          <mxGeometry x="420" width="60" height="40" as="geometry" />
        </mxCell>
        <mxCell id="HrFU1trKESRWzAMs8E7i-35" value="lw指令" style="text;html=1;align=center;verticalAlign=middle;resizable=0;points=[];autosize=1;strokeColor=none;fillColor=none;" vertex="1" parent="1">
          <mxGeometry x="75" y="179" width="60" height="30" as="geometry" />
        </mxCell>
        <mxCell id="HrFU1trKESRWzAMs8E7i-67" value="LOAD指令" style="text;html=1;align=center;verticalAlign=middle;resizable=0;points=[];autosize=1;strokeColor=none;fillColor=none;" vertex="1" parent="1">
          <mxGeometry x="330" y="230" width="80" height="30" as="geometry" />
        </mxCell>
      </root>
    </mxGraphModel>
  </diagram>
</mxfile>
